<svg width="11" height="7" viewBox="0 0 11 7" fill="none" xmlns="http://www.w3.org/2000/svg">
<path d="M0.296477 1.24427L0.296458 1.24425C0.0345039 0.982427 0.0345287 0.557967 0.296441 0.296309L0.296476 0.296275C0.558177 0.0345735 0.982649 0.0345776 1.24432 0.296272L1.31504 0.225564L1.24432 0.296274L5.42937 4.48144L5.50008 4.55215L5.57079 4.48144L9.75567 0.296411C9.75568 0.296406 9.75568 0.2964 9.75569 0.296395C10.0175 0.0346841 10.4419 0.0347098 10.7036 0.296397L10.7036 0.296411C10.9654 0.5581 10.9655 0.982563 10.7036 1.24439L10.7743 1.3151L10.7036 1.24439L5.9739 5.9742C5.97389 5.97421 5.97389 5.97421 5.97388 5.97422C5.84294 6.10509 5.67173 6.17041 5.5001 6.17041C5.32839 6.17041 5.15703 6.10495 5.02615 5.9741C5.02615 5.97409 5.02615 5.97409 5.02615 5.97409L0.296477 1.24427Z" fill="#4B45D2" stroke="#EFEEFF" stroke-width="0.2"/>
</svg>
