<svg width="11" height="7" viewBox="0 0 11 7" fill="none" xmlns="http://www.w3.org/2000/svg">
<path d="M10.7035 5.75573L10.7035 5.75575C10.9655 6.01757 10.9655 6.44203 10.7036 6.70369L10.7035 6.70373C10.4418 6.96543 10.0174 6.96542 9.75568 6.70373L9.68496 6.77444L9.75568 6.70373L5.57063 2.51856L5.49992 2.44785L5.42921 2.51856L1.24433 6.70359C1.24432 6.70359 1.24432 6.7036 1.24431 6.7036C0.982478 6.96532 0.558053 6.96529 0.296366 6.7036L0.296352 6.70359C0.0345573 6.4419 0.0345367 6.01744 0.296366 5.75561L0.225655 5.6849L0.296367 5.75561L5.0261 1.0258C5.02611 1.02579 5.02611 1.02579 5.02612 1.02578C5.15706 0.894912 5.32827 0.829593 5.4999 0.829593C5.67161 0.829593 5.84297 0.89505 5.97385 1.0259C5.97385 1.02591 5.97385 1.02591 5.97385 1.02591L10.7035 5.75573Z" fill="#4B45D2" stroke="#EFEEFF" stroke-width="0.2"/>
</svg>
