<svg width="12" height="12" viewBox="0 0 12 12" fill="none" xmlns="http://www.w3.org/2000/svg">
<path d="M6.44737 5.05263V5.55263H6.94737H11.0526C11.2989 5.55263 11.5 5.75374 11.5 6C11.5 6.24626 11.2989 6.44737 11.0526 6.44737H6.94737H6.44737V6.94737V11.0526C6.44737 11.2989 6.24626 11.5 6 11.5C5.75374 11.5 5.55263 11.2989 5.55263 11.0526V6.94737V6.44737H5.05263H0.947367C0.701111 6.44737 0.5 6.24626 0.5 6C0.5 5.75374 0.701111 5.55263 0.947367 5.55263H5.05263H5.55263V5.05263V0.947367C5.55263 0.701111 5.75374 0.5 6 0.5C6.24626 0.5 6.44737 0.701111 6.44737 0.947367V5.05263Z" fill="#5B5FC7" stroke="#5B5FC7"/>
</svg>
