<svg width="10" height="8" viewBox="0 0 10 8" fill="none" xmlns="http://www.w3.org/2000/svg">
<path d="M0.383355 6.9675C0.144492 7.19718 0.137044 7.577 0.36672 7.81587C0.596396 8.05473 0.976222 8.06218 1.21509 7.8325L4.81509 4.4325C4.93273 4.31938 4.99922 4.16321 4.99922 4C4.99922 3.83679 4.93273 3.68062 4.81509 3.5675L1.21508 0.167501C0.976222 -0.0621752 0.596396 -0.0547274 0.36672 0.184135C0.137044 0.422999 0.144491 0.802824 0.383354 1.0325L3.53355 4L0.383355 6.9675Z" fill="#626262"/>
<path d="M5.18336 6.9675C4.94449 7.19718 4.93704 7.577 5.16672 7.81587C5.3964 8.05473 5.77622 8.06218 6.01509 7.8325L9.61509 4.4325C9.73273 4.31938 9.79922 4.16321 9.79922 4C9.79922 3.83679 9.73273 3.68062 9.61509 3.5675L6.01509 0.167501C5.77622 -0.0621752 5.3964 -0.0547274 5.16672 0.184135C4.93704 0.422999 4.94449 0.802824 5.18335 1.0325L8.33356 4L5.18336 6.9675Z" fill="#626262"/>
</svg>
