<svg width="43" height="42" viewBox="0 0 43 42" fill="none" xmlns="http://www.w3.org/2000/svg">
<path fill-rule="evenodd" clip-rule="evenodd" d="M21.3747 2.78839C11.3332 2.78839 3.16331 10.9583 3.16331 20.9999C3.16331 31.0417 11.3332 39.2117 21.3747 39.2117C31.4163 39.2117 39.5857 31.0417 39.5857 20.9999C39.5858 10.9583 31.4164 2.78839 21.3747 2.78839ZM21.3747 42.0002C15.7659 42.0002 10.4924 39.8156 6.52576 35.8492C2.5591 31.8827 0.375 26.6091 0.375 20.9999C0.375 15.3909 2.5591 10.1165 6.52585 6.15093C10.4925 2.18444 15.7659 0 21.3747 0C26.984 0 32.2575 2.18444 36.2237 6.15093C40.1904 10.1166 42.375 15.391 42.375 20.9999C42.375 26.6091 40.1904 31.8827 36.2237 35.8491C32.2575 39.8156 26.9841 42.0002 21.3747 42.0002Z" fill="#66D178"/>
<path fill-rule="evenodd" clip-rule="evenodd" d="M18.9195 27.3027C18.5501 27.3027 18.1953 27.1564 17.9341 26.894L13.0256 21.9864C12.481 21.4418 12.481 20.5592 13.0256 20.0146C13.5703 19.4709 14.4529 19.4709 14.9975 20.0146L18.9195 23.9366L27.7492 15.107C28.2938 14.5633 29.1765 14.5633 29.7211 15.107C30.2648 15.6516 30.2648 16.5343 29.7211 17.0789L19.905 26.894C19.6438 27.1564 19.2889 27.3027 18.9195 27.3027Z" fill="#66D178"/>
</svg>
