<svg width="11" height="11" viewBox="0 0 11 11" fill="none" xmlns="http://www.w3.org/2000/svg">
<path d="M5.5 0C2.46742 0 0 2.46742 0 5.5C0 8.53258 2.46742 11 5.5 11C8.53258 11 11 8.53258 11 5.5C11 2.46742 8.53258 0 5.5 0ZM8.57394 4.05263L5.0589 7.5401C4.85213 7.74687 4.5213 7.76065 4.30075 7.55388L2.43985 5.8584C2.2193 5.65163 2.20551 5.30702 2.3985 5.08647C2.60526 4.86591 2.94987 4.85213 3.17043 5.0589L4.64536 6.40977L7.78822 3.26692C8.00877 3.04637 8.35338 3.04637 8.57394 3.26692C8.79449 3.48747 8.79449 3.83208 8.57394 4.05263Z" fill="#00C56B"/>
</svg>
