<svg width="20" height="21" viewBox="0 0 20 21" fill="none" xmlns="http://www.w3.org/2000/svg">
<path d="M16.6 2.3225H14.892V1.40415C14.9018 1.31731 14.8936 1.22932 14.8681 1.14596C14.8426 1.06259 14.8003 0.985747 14.7441 0.920463C14.6878 0.855179 14.6187 0.802934 14.5415 0.76716C14.4643 0.731385 14.3806 0.712891 14.296 0.712891C14.2114 0.712891 14.1277 0.731385 14.0505 0.76716C13.9733 0.802934 13.9042 0.855179 13.8479 0.920463C13.7917 0.985747 13.7494 1.06259 13.7239 1.14596C13.6984 1.22932 13.6902 1.31731 13.7 1.40415V2.32663H5.361V1.40415C5.3431 1.25402 5.27267 1.11584 5.16299 1.01563C5.0533 0.915423 4.91193 0.860109 4.7655 0.860109C4.61907 0.860109 4.4777 0.915423 4.36801 1.01563C4.25833 1.11584 4.1879 1.25402 4.17 1.40415V2.32663H2.457C1.8063 2.32745 1.18242 2.59455 0.721925 3.06947C0.261434 3.54439 0.00185111 4.18844 0 4.86062L0 17.9324C0.000793899 18.6053 0.259911 19.2504 0.720515 19.7262C1.18112 20.202 1.80561 20.4697 2.457 20.4705H16.6C17.2521 20.4708 17.8776 20.2036 18.3391 19.7277C18.8005 19.2517 19.0602 18.606 19.061 17.9324V4.86062C19.0602 4.187 18.8005 3.54128 18.3391 3.06534C17.8776 2.58941 17.2521 2.32223 16.6 2.3225ZM17.87 17.9324C17.8705 18.1048 17.838 18.2757 17.7744 18.4351C17.7108 18.5945 17.6172 18.7394 17.4992 18.8613C17.3812 18.9832 17.241 19.0798 17.0866 19.1456C16.9323 19.2113 16.7669 19.2449 16.6 19.2443H2.457C2.29041 19.2443 2.12546 19.2104 1.9716 19.1444C1.81774 19.0784 1.678 18.9817 1.56039 18.8598C1.44277 18.7379 1.3496 18.5933 1.28622 18.4341C1.22283 18.275 1.19047 18.1045 1.191 17.9324V7.7448C1.191 7.69384 1.2106 7.64497 1.24548 7.60893C1.28036 7.5729 1.32767 7.55266 1.377 7.55266H17.684C17.7333 7.55266 17.7806 7.5729 17.8155 7.60893C17.8504 7.64497 17.87 7.69384 17.87 7.7448V17.9324Z" fill="#9B9B9B"/>
</svg>
