<svg width="10" height="11" viewBox="0 0 10 11" fill="none" xmlns="http://www.w3.org/2000/svg">
<path d="M5.91615 5.65853L9.80995 9.8184C10.0634 10.089 10.0634 10.5265 9.80995 10.7971C9.55667 11.0676 9.14714 11.0676 8.89386 10.7971L4.99994 6.63719L1.10614 10.7971C0.85274 11.0676 0.443335 11.0676 0.190051 10.7971C-0.0633505 10.5265 -0.0633505 10.089 0.190051 9.8184L4.08385 5.65853L0.190051 1.49866C-0.0633505 1.22808 -0.0633505 0.790581 0.190051 0.519998C0.316278 0.385023 0.482246 0.317219 0.648097 0.317219C0.813947 0.317219 0.979797 0.385023 1.10614 0.519998L4.99994 4.67987L8.89386 0.519998C9.0202 0.385023 9.18605 0.317219 9.3519 0.317219C9.51775 0.317219 9.6836 0.385023 9.80995 0.519998C10.0634 0.790581 10.0634 1.22808 9.80995 1.49866L5.91615 5.65853Z" fill="#939191"/>
</svg>
