<svg width="12" height="12" viewBox="0 0 12 12" fill="none" xmlns="http://www.w3.org/2000/svg">
<path d="M10.0822 0.977613H9.04481V0.419844C9.05074 0.3671 9.04579 0.313657 9.03031 0.263027C9.01482 0.212396 8.98914 0.165722 8.95495 0.126071C8.92077 0.0864203 8.87885 0.0546888 8.83195 0.0329608C8.78505 0.0112329 8.73423 0 8.68283 0C8.63142 0 8.5806 0.0112329 8.5337 0.0329608C8.4868 0.0546888 8.44488 0.0864203 8.4107 0.126071C8.37651 0.165722 8.35083 0.212396 8.33534 0.263027C8.31986 0.313657 8.31491 0.3671 8.32084 0.419844V0.980123H3.25606V0.419844C3.24519 0.328662 3.20241 0.244735 3.13579 0.183872C3.06918 0.12301 2.98331 0.0894146 2.89438 0.0894146C2.80544 0.0894146 2.71958 0.12301 2.65296 0.183872C2.58634 0.244735 2.54357 0.328662 2.53269 0.419844V0.980123H1.49228C1.09707 0.980619 0.718153 1.14285 0.438469 1.4313C0.158785 1.71974 0.00112429 2.11091 0 2.51917L0 10.4584C0.000482183 10.8671 0.157859 11.259 0.437613 11.5479C0.717366 11.8369 1.09665 11.9995 1.49228 12H10.0822C10.4782 12.0002 10.8581 11.8379 11.1384 11.5488C11.4187 11.2598 11.5764 10.8676 11.5769 10.4584V2.51917C11.5764 2.11004 11.4187 1.71785 11.1384 1.42879C10.8581 1.13973 10.4782 0.977447 10.0822 0.977613ZM10.8535 10.4584C10.8539 10.5632 10.8341 10.6669 10.7955 10.7638C10.7568 10.8606 10.7 10.9486 10.6283 11.0226C10.5566 11.0967 10.4715 11.1554 10.3777 11.1953C10.284 11.2352 10.1836 11.2556 10.0822 11.2553H1.49228C1.3911 11.2553 1.29092 11.2346 1.19747 11.1946C1.10402 11.1545 1.01915 11.0958 0.947717 11.0217C0.876284 10.9477 0.819697 10.8598 0.781198 10.7632C0.742699 10.6665 0.723047 10.563 0.723366 10.4584V4.2709C0.723366 4.23995 0.735268 4.21027 0.756454 4.18838C0.77764 4.1665 0.806374 4.1542 0.836335 4.1542H10.7406C10.7705 4.1542 10.7993 4.1665 10.8204 4.18838C10.8416 4.21027 10.8535 4.23995 10.8535 4.2709V10.4584Z" fill="#9B9B9B"/>
</svg>
