<svg width="15" height="18" viewBox="0 0 15 18" fill="none" xmlns="http://www.w3.org/2000/svg">
<path fill-rule="evenodd" clip-rule="evenodd" d="M6.01295 3.45548e-05L5.97658 1.69682e-05C5.80551 -0.000105971 5.65646 -0.000211357 5.51571 0.0247541C4.95967 0.123369 4.4785 0.508574 4.21843 1.06329C4.1526 1.2037 4.10555 1.3608 4.05155 1.5411L4.04007 1.5794L3.96332 1.83517C3.94831 1.8852 3.94412 1.89898 3.94048 1.91016C3.80203 2.33529 3.44307 2.62264 3.03618 2.6341C3.02547 2.6344 3.01237 2.63445 2.9649 2.63445H0.592966C0.265483 2.63445 0 2.92931 0 3.29306C0 3.65679 0.265483 3.95166 0.592966 3.95166H2.97167H2.9849H11.6417H11.655H14.0336C14.3611 3.95166 14.6265 3.65679 14.6265 3.29306C14.6265 2.92931 14.3611 2.63445 14.0336 2.63445H11.6617C11.6143 2.63445 11.6011 2.6344 11.5905 2.6341C11.1835 2.62264 10.8246 2.33526 10.6862 1.91015C10.6825 1.89905 10.6782 1.88495 10.6633 1.83517L10.5865 1.5794L10.5751 1.54108C10.5211 1.36077 10.474 1.20369 10.4082 1.06329C10.1481 0.508574 9.66696 0.123369 9.11092 0.0247541C8.97019 -0.000211357 8.82116 -0.000105971 8.65007 1.69682e-05L8.6137 3.45548e-05H6.01295ZM5.05569 2.35823C5.02464 2.45356 4.98855 2.54574 4.94783 2.63445H9.67882C9.63811 2.54574 9.60198 2.45356 9.57098 2.35824L9.54031 2.25871L9.46148 1.99594C9.38938 1.75575 9.37277 1.70678 9.35633 1.67166C9.26968 1.48675 9.10926 1.35836 8.92394 1.32548C8.88868 1.31924 8.84164 1.31724 8.6137 1.31724H6.01295C5.785 1.31724 5.73793 1.31924 5.70272 1.32548C5.51737 1.35836 5.35698 1.48675 5.27029 1.67166C5.25383 1.70678 5.23723 1.75577 5.16515 1.99594L5.08624 2.25887C5.07437 2.29846 5.06511 2.32927 5.05569 2.35823Z" fill="#FF9797"/>
<path fill-rule="evenodd" clip-rule="evenodd" d="M2.01839 5.70851C2.34515 5.68432 2.6277 5.95892 2.64949 6.32185L3.01312 12.3802C3.08417 13.5639 3.13479 14.3874 3.24592 15.007C3.35372 15.6081 3.50421 15.9262 3.72038 16.1509C3.93654 16.3754 4.23236 16.5211 4.77947 16.6006C5.3435 16.6825 6.08666 16.6838 7.15471 16.6838H7.7661C8.83415 16.6838 9.57733 16.6825 10.1414 16.6006C10.6885 16.5211 10.9843 16.3754 11.2005 16.1509C11.4166 15.9262 11.5671 15.6081 11.6749 15.007C11.786 14.3874 11.8367 13.5639 11.9077 12.3802L12.2714 6.32185C12.2931 5.95892 12.5757 5.68432 12.9024 5.70851C13.2292 5.73271 13.4764 6.04654 13.4546 6.40947L13.0882 12.514C13.0206 13.6405 12.966 14.5504 12.838 15.2644C12.7049 16.0067 12.4784 16.6267 12.0106 17.1127C11.543 17.5987 10.9709 17.8084 10.2952 17.9066C9.64524 18.001 8.82426 18.001 7.80784 18.001H7.11296C6.09662 18.001 5.27557 18.001 4.62565 17.9066C3.94995 17.8084 3.37789 17.5987 2.91016 17.1127C2.44244 16.6267 2.21599 16.0067 2.08285 15.2644C1.95479 14.5504 1.90019 13.6405 1.83259 12.514L1.46618 6.40947C1.4444 6.04654 1.69163 5.73271 2.01839 5.70851Z" fill="#FF9797"/>
</svg>
