<svg width="11" height="21" viewBox="0 0 11 21" fill="none" xmlns="http://www.w3.org/2000/svg">
<path d="M1.91205 3.71003C2.96805 3.71003 3.82411 2.87951 3.82411 1.85501C3.82411 0.830518 2.96805 0 1.91205 0C0.856056 0 0 0.830518 0 1.85501C0 2.87951 0.856056 3.71003 1.91205 3.71003Z" fill="#A5A3AF"/>
<path d="M1.91205 12.2686C2.96805 12.2686 3.82411 11.4381 3.82411 10.4136C3.82411 9.38911 2.96805 8.55859 1.91205 8.55859C0.856056 8.55859 0 9.38911 0 10.4136C0 11.4381 0.856056 12.2686 1.91205 12.2686Z" fill="#A5A3AF"/>
<path d="M1.91205 20.8233C2.96805 20.8233 3.82411 19.9928 3.82411 18.9683C3.82411 17.9438 2.96805 17.1133 1.91205 17.1133C0.856056 17.1133 0 17.9438 0 18.9683C0 19.9928 0.856056 20.8233 1.91205 20.8233Z" fill="#A5A3AF"/>
<path d="M8.73627 3.71003C9.79227 3.71003 10.6483 2.87951 10.6483 1.85501C10.6483 0.830518 9.79227 0 8.73627 0C7.68027 0 6.82422 0.830518 6.82422 1.85501C6.82422 2.87951 7.68027 3.71003 8.73627 3.71003Z" fill="#A5A3AF"/>
<path d="M8.73627 12.2686C9.79227 12.2686 10.6483 11.4381 10.6483 10.4136C10.6483 9.38911 9.79227 8.55859 8.73627 8.55859C7.68027 8.55859 6.82422 9.38911 6.82422 10.4136C6.82422 11.4381 7.68027 12.2686 8.73627 12.2686Z" fill="#A5A3AF"/>
<path d="M8.73627 20.8233C9.79227 20.8233 10.6483 19.9928 10.6483 18.9683C10.6483 17.9438 9.79227 17.1133 8.73627 17.1133C7.68027 17.1133 6.82422 17.9438 6.82422 18.9683C6.82422 19.9928 7.68027 20.8233 8.73627 20.8233Z" fill="#A5A3AF"/>
</svg>
