<svg width="18" height="16" viewBox="0 0 18 16" fill="none" xmlns="http://www.w3.org/2000/svg">
<path d="M11.3834 3.15936L14.5783 6.02948M12.9808 1.72429C13.1843 1.50834 13.4359 1.33256 13.7197 1.20816C14.0035 1.08376 14.3132 1.01346 14.6291 1.00175C14.9451 0.99004 15.2603 1.03717 15.5546 1.14014C15.849 1.24311 16.1161 1.39966 16.3389 1.59982C16.5617 1.79997 16.7353 2.03933 16.8487 2.30265C16.9621 2.56597 17.0127 2.84747 16.9973 3.12921C16.982 3.41094 16.901 3.68673 16.7595 3.939C16.6181 4.19127 16.4193 4.41449 16.1757 4.59442L5.39298 14.2811L1 15.3574L2.19808 11.411L12.9808 1.72429Z" stroke="#009DF3" stroke-width="1.2" stroke-linecap="round" stroke-linejoin="round"/>
</svg>
