<svg width="18" height="12" viewBox="0 0 18 12" fill="none" xmlns="http://www.w3.org/2000/svg">
<path d="M17.2199 5.18568C17.0651 4.97389 13.3762 0 8.66492 0C3.95362 0 0.264622 4.97389 0.109971 5.18548C-0.0366571 5.3864 -0.0366571 5.65891 0.109971 5.85983C0.264622 6.07161 3.95362 11.0455 8.66492 11.0455C13.3762 11.0455 17.0651 6.07158 17.2199 5.86C17.3667 5.65911 17.3667 5.3864 17.2199 5.18568ZM8.66492 9.90287C5.19455 9.90287 2.18883 6.6016 1.29908 5.52236C2.18768 4.44218 5.1871 1.14263 8.66492 1.14263C12.1351 1.14263 15.1406 4.44333 16.0308 5.52314C15.1422 6.60329 12.1427 9.90287 8.66492 9.90287Z" fill="#9B9B9B"/>
<path d="M8.66231 2.09375C6.77218 2.09375 5.23438 3.63155 5.23438 5.52168C5.23438 7.41181 6.77218 8.94961 8.66231 8.94961C10.5524 8.94961 12.0902 7.41181 12.0902 5.52168C12.0902 3.63155 10.5524 2.09375 8.66231 2.09375ZM8.66231 7.80695C7.40215 7.80695 6.37704 6.7818 6.37704 5.52168C6.37704 4.26156 7.40219 3.23642 8.66231 3.23642C9.92242 3.23642 10.9476 4.26156 10.9476 5.52168C10.9476 6.7818 9.92246 7.80695 8.66231 7.80695Z" fill="#9B9B9B"/>
</svg>
