<svg width="18" height="13" viewBox="0 0 18 13" fill="none" xmlns="http://www.w3.org/2000/svg">
<path d="M10.8185 6.646L11.803 5.66152C11.8747 5.92951 11.9166 6.20968 11.9166 6.50002C11.9166 8.29212 10.4587 9.75001 8.66664 9.75001C8.37631 9.75001 8.09613 9.70803 7.82815 9.63639L8.81262 8.65192C9.88905 8.57852 10.7451 7.72242 10.8185 6.646ZM17.265 6.2369C17.1984 6.11706 16.2535 4.46132 14.4064 3.05814L13.6181 3.8464C14.965 4.8367 15.8184 5.99166 16.1544 6.50083C15.5123 7.4784 12.9939 10.8333 8.66664 10.8333C8.01773 10.8333 7.41431 10.7503 6.84651 10.6179L5.95642 11.508C6.77474 11.7589 7.67418 11.9167 8.66664 11.9167C14.3369 11.9167 17.1482 6.97343 17.265 6.76313C17.356 6.59941 17.356 6.40062 17.265 6.2369ZM15.0079 0.924656L3.09128 12.8413C2.98552 12.9471 2.84686 13 2.70833 13C2.5698 13 2.43113 12.9471 2.32537 12.8413C2.11371 12.6296 2.11371 12.2869 2.32537 12.0754L3.84149 10.5593C1.39045 9.07956 0.145031 6.90139 0.0682498 6.76313C-0.0227499 6.59941 -0.0227499 6.40049 0.0682498 6.23677C0.185114 6.0266 2.99636 1.08336 8.66664 1.08336C10.1328 1.08336 11.4027 1.41784 12.4884 1.91238L14.242 0.158742C14.4537 -0.0529139 14.7964 -0.0529139 15.0079 0.158742C15.2194 0.370397 15.2196 0.713136 15.0079 0.924656ZM4.64925 9.7515L6.02061 8.38014C5.64185 7.84876 5.41665 7.2008 5.41665 6.50002C5.41665 4.70792 6.87454 3.25003 8.66664 3.25003C9.36742 3.25003 10.0154 3.47522 10.5468 3.85385L11.6557 2.74492C10.7795 2.39406 9.78396 2.16669 8.66664 2.16669C4.33942 2.16669 1.82094 5.52163 1.17907 6.4992C1.58667 7.11697 2.75829 8.68076 4.64925 9.7515ZM6.80697 7.59364L9.76026 4.64034C9.43811 4.45008 9.0672 4.33336 8.66664 4.33336C7.472 4.33336 6.49998 5.30537 6.49998 6.50002C6.49998 6.90058 6.61671 7.27148 6.80697 7.59364Z" fill="#9B9B9B"/>
</svg>
