<svg width="20" height="20" viewBox="0 0 20 20" fill="none" xmlns="http://www.w3.org/2000/svg">
<path d="M8.43612 18.4375C8.27036 18.4375 8.11139 18.3717 7.99418 18.2544C7.87697 18.1372 7.81112 17.9783 7.81112 17.8125V11.8031L2.01737 5.43125C1.7893 5.17992 1.63908 4.8678 1.58495 4.53276C1.53081 4.19772 1.57509 3.85417 1.7124 3.54381C1.84972 3.23345 2.07417 2.96961 2.35851 2.78432C2.64285 2.59904 2.97486 2.50027 3.31425 2.5H16.683C17.0224 2.50027 17.3544 2.59904 17.6387 2.78432C17.9231 2.96961 18.1475 3.23345 18.2848 3.54381C18.4221 3.85417 18.4664 4.19772 18.4123 4.53276C18.3582 4.8678 18.2079 5.17992 17.9799 5.43125L12.1861 11.8031V15.3125C12.1861 15.4061 12.165 15.4985 12.1244 15.5829C12.0838 15.6673 12.0248 15.7415 11.9517 15.8L8.82675 18.3C8.71595 18.3889 8.57817 18.4374 8.43612 18.4375ZM3.31425 3.75C3.21699 3.75024 3.12189 3.77867 3.04045 3.83184C2.95902 3.88501 2.89473 3.96064 2.85539 4.04958C2.81604 4.13852 2.80332 4.23696 2.81876 4.33298C2.83419 4.42901 2.87713 4.5185 2.94237 4.59062L8.89862 11.1531C9.00067 11.2653 9.05842 11.4108 9.06112 11.5625V16.5125L10.9361 15V11.5625C10.9357 11.4065 10.9937 11.256 11.0986 11.1406L17.0549 4.57812C17.1162 4.50567 17.1558 4.41734 17.1691 4.32334C17.1824 4.22933 17.1688 4.13348 17.1299 4.04688C17.091 3.96027 17.0284 3.88643 16.9493 3.8339C16.8702 3.78136 16.7779 3.75228 16.683 3.75H3.31425Z" fill="#A1A1A1"/>
</svg>
