<svg width="7" height="12" viewBox="0 0 7 12" fill="none" xmlns="http://www.w3.org/2000/svg">
<path d="M5.12032 10.7577L5.12034 10.7577C5.38217 11.0197 5.80663 11.0197 6.06828 10.7578L6.06832 10.7577C6.33002 10.496 6.33002 10.0716 6.06832 9.80988L6.13903 9.73916L6.06832 9.80987L1.88316 5.62483L1.81244 5.55412L1.88316 5.48341L6.06818 1.29853C6.32991 1.03669 6.32989 0.612257 6.0682 0.350565L6.06818 0.350551C5.80649 0.0887565 5.38203 0.0887359 5.1202 0.350565L5.04949 0.279855L5.1202 0.350566L0.390393 5.0803C0.390388 5.08031 0.390381 5.08031 0.390376 5.08032C0.259506 5.21126 0.194186 5.38247 0.194186 5.5541C0.194186 5.72581 0.259643 5.89717 0.390497 6.02804C0.390499 6.02805 0.390501 6.02805 0.390503 6.02805L5.12032 10.7577Z" fill="#616161" stroke="#EFEEFF" stroke-width="0.2"/>
</svg>
