<svg width="16" height="16" viewBox="0 0 16 16" fill="none" xmlns="http://www.w3.org/2000/svg">
<path d="M11.9097 10.668C11.3353 10.6681 10.7845 10.8962 10.3781 11.3021C9.97169 11.708 9.74299 12.2586 9.74219 12.833C9.85613 15.7052 13.9622 15.7069 14.0747 12.8329C14.0744 12.2588 13.8463 11.7083 13.4403 11.3023C13.0343 10.8964 12.4838 10.6682 11.9097 10.668ZM13.2072 13.083H10.6122C10.5459 13.083 10.4823 13.0566 10.4354 13.0097C10.3885 12.9629 10.3622 12.8993 10.3622 12.833C10.3622 12.7667 10.3885 12.7031 10.4354 12.6562C10.4823 12.6093 10.5459 12.583 10.6122 12.583H13.2072C13.2728 12.584 13.3354 12.6108 13.3814 12.6576C13.4275 12.7043 13.4533 12.7673 13.4533 12.833C13.4533 12.8986 13.4275 12.9616 13.3814 13.0084C13.3354 13.0551 13.2728 13.0819 13.2072 13.083Z" fill="#F34141"/>
<path d="M5.38907 3.41211C5.30697 3.4133 5.22864 3.44674 5.171 3.50522C5.11336 3.5637 5.08105 3.64251 5.08105 3.72462C5.08106 3.80672 5.11337 3.88553 5.17101 3.94401C5.22865 4.00248 5.30699 4.03593 5.38909 4.03711H8.76157C8.84367 4.03592 8.92201 4.00248 8.97964 3.944C9.03728 3.88552 9.06959 3.80671 9.06959 3.7246C9.06959 3.64249 9.03727 3.56368 8.97963 3.50521C8.92199 3.44673 8.84366 3.41329 8.76156 3.41211H5.38907Z" fill="#F34141"/>
<path d="M5.37417 2.915C5.38032 2.91146 8.76149 2.91229 8.77167 2.9125C9.02455 2.73682 9.23103 2.50241 9.37341 2.2294C9.5158 1.95639 9.58984 1.65291 9.58917 1.345V1H4.55167C4.50527 1.74775 4.73481 2.48519 5.37417 2.915Z" fill="#F34141"/>
<path d="M11.9093 10.1683C12.0118 10.1683 12.1143 10.1758 12.2143 10.1858C12.1608 8.66673 11.621 7.20498 10.6743 6.01579C10.2255 5.42413 9.70412 4.82362 9.03176 4.48831C8.94526 4.52024 8.85395 4.53714 8.76175 4.53828H5.38927C5.29708 4.53714 5.20576 4.52023 5.11927 4.48828C4.44749 4.8236 3.92433 5.42342 3.47677 6.01582C1.18786 8.62129 1.08999 14.8291 5.52927 15.0008L8.62177 15.0008C9.10007 15.0006 9.57292 14.8992 10.0093 14.7033C8.35952 13.0615 9.55886 10.1531 11.9093 10.1683ZM7.41677 9.89829C7.66307 9.90035 7.89858 9.99963 8.07201 10.1745C8.24544 10.3494 8.34276 10.5857 8.34275 10.832C8.34275 11.0784 8.24544 11.3147 8.072 11.4896C7.89856 11.6645 7.66305 11.7637 7.41676 11.7658H7.32427V12.0283C7.32329 12.094 7.29652 12.1566 7.24975 12.2027C7.20297 12.2488 7.13993 12.2746 7.07426 12.2746C7.00859 12.2746 6.94556 12.2488 6.89879 12.2027C6.85201 12.1566 6.82524 12.0939 6.82427 12.0283V11.7658H6.04927C5.98383 11.7645 5.92152 11.7376 5.8757 11.6908C5.82989 11.6441 5.80423 11.5812 5.80423 11.5158C5.80423 11.4503 5.8299 11.3875 5.87571 11.3408C5.92153 11.294 5.98385 11.2671 6.04929 11.2658H6.82427V10.3983H6.73427C6.60845 10.397 6.4842 10.3703 6.36893 10.3199C6.25366 10.2694 6.14976 10.1962 6.06343 10.1047C5.97711 10.0131 5.91014 9.90514 5.86652 9.78711C5.82291 9.66909 5.80355 9.54349 5.80961 9.41781C5.81567 9.29213 5.84701 9.16897 5.90178 9.05569C5.95654 8.94241 6.03359 8.84134 6.12832 8.75853C6.22305 8.67572 6.33351 8.61287 6.45309 8.57374C6.57268 8.53461 6.69892 8.52 6.82428 8.5308L6.82427 8.2683C6.82427 8.20199 6.85061 8.1384 6.89749 8.09152C6.94438 8.04464 7.00796 8.0183 7.07427 8.0183C7.14057 8.0183 7.20416 8.04464 7.25104 8.09152C7.29793 8.1384 7.32427 8.20199 7.32427 8.2683V8.5308H8.10177C8.16807 8.5308 8.23166 8.55714 8.27854 8.60402C8.32543 8.6509 8.35177 8.71449 8.35177 8.7808C8.35177 8.8471 8.32543 8.91069 8.27854 8.95757C8.23166 9.00446 8.16807 9.0308 8.10177 9.0308H7.32427V9.8983L7.41677 9.89829Z" fill="#F34141"/>
<path d="M6.29883 9.46454C6.3006 9.52897 6.31616 9.59228 6.34447 9.65019C6.37277 9.7081 6.41316 9.75927 6.46291 9.80025C6.51266 9.84124 6.57062 9.87108 6.63288 9.88777C6.69513 9.90446 6.76025 9.90762 6.82383 9.89702V9.02954C6.76005 9.01894 6.69473 9.02218 6.63231 9.03902C6.56989 9.05587 6.51181 9.08594 6.46203 9.12719C6.41224 9.16844 6.3719 9.21992 6.34374 9.27812C6.31559 9.33632 6.30027 9.3999 6.29883 9.46454Z" fill="#F34141"/>
<path d="M7.32423 11.2657C7.38797 11.2776 7.45355 11.2754 7.51631 11.2591C7.57908 11.2428 7.63749 11.2129 7.68738 11.1715C7.73728 11.1301 7.77743 11.0782 7.80499 11.0195C7.83255 10.9608 7.84684 10.8968 7.84684 10.8319C7.84684 10.7671 7.83255 10.703 7.80499 10.6443C7.77742 10.5857 7.73727 10.5338 7.68737 10.4923C7.63747 10.4509 7.57906 10.421 7.5163 10.4048C7.45353 10.3885 7.38795 10.3862 7.32422 10.3982L7.32423 11.2657Z" fill="#F34141"/>
</svg>
