<svg width="16" height="16" viewBox="0 0 16 16" fill="none" xmlns="http://www.w3.org/2000/svg">
<path d="M3.16602 4.16797L4.16602 3.16797V6.83464M4.16602 6.83464H3.16602M4.16602 6.83464H4.83268M8.83267 9.5013H7.77017C7.28301 9.5013 7.01149 8.95856 7.26987 8.57288C7.3017 8.52536 7.34676 8.48872 7.39438 8.45703L8.59428 7.6586C8.6419 7.62692 8.68681 7.59012 8.71931 7.54306C9.01624 7.11319 8.71354 6.5013 8.16773 6.5013H7.16602M11.166 9.83464H12.1303C12.9532 9.83464 13.0993 11.093 12.3394 11.3051C12.3026 11.3153 12.264 11.3194 12.2259 11.3208L11.8327 11.3346L12.2259 11.3485C12.264 11.3498 12.3026 11.3539 12.3394 11.3642C13.0993 11.5763 12.9532 12.8346 12.1303 12.8346H11.166" stroke="#667085" stroke-width="1.5" stroke-linecap="round" stroke-linejoin="round"/>
</svg>
