<svg width="16" height="16" viewBox="0 0 16 16" fill="none" xmlns="http://www.w3.org/2000/svg">
<path d="M3.16602 10.668L4.99681 8.33909C5.51595 7.67871 6.50903 7.65711 7.05641 8.29428L8.66602 10.168M7.27605 8.54996C7.96748 7.67041 8.93091 6.42434 8.99359 6.34326L9.00024 6.33475C9.52032 5.67862 10.5102 5.65851 11.0564 6.29428L12.666 8.16797M4.49935 3.16797H11.4993C12.2357 3.16797 12.8327 3.76492 12.8327 4.5013V11.5013C12.8327 12.2377 12.2357 12.8346 11.4993 12.8346H4.49935C3.76297 12.8346 3.16602 12.2377 3.16602 11.5013V4.5013C3.16602 3.76492 3.76297 3.16797 4.49935 3.16797Z" stroke="#667085" stroke-width="1.5" stroke-linecap="round" stroke-linejoin="round"/>
</svg>
