<svg width="10" height="8" viewBox="0 0 10 8" fill="none" xmlns="http://www.w3.org/2000/svg">
<path d="M9.61509 1.0325C9.85395 0.802822 9.8614 0.422996 9.63172 0.184133C9.40205 -0.05473 9.02222 -0.0621778 8.78336 0.167498L5.18336 3.5675C5.06571 3.68062 4.99922 3.83679 4.99922 4C4.99922 4.16321 5.06571 4.31938 5.18336 4.4325L8.78336 7.8325C9.02222 8.06218 9.40205 8.05473 9.63172 7.81586C9.8614 7.577 9.85395 7.19718 9.61509 6.9675L6.46489 4L9.61509 1.0325Z" fill="#626262"/>
<path d="M4.81509 1.0325C5.05395 0.802822 5.0614 0.422996 4.83172 0.184133C4.60205 -0.05473 4.22222 -0.0621778 3.98336 0.167498L0.383358 3.5675C0.26571 3.68062 0.199223 3.83679 0.199223 4C0.199223 4.16321 0.26571 4.31938 0.383358 4.4325L3.98336 7.8325C4.22222 8.06218 4.60205 8.05473 4.83172 7.81586C5.0614 7.577 5.05395 7.19718 4.81509 6.9675L1.66489 4L4.81509 1.0325Z" fill="#626262"/>
</svg>
