<svg width="17" height="16" viewBox="0 0 17 16" fill="none" xmlns="http://www.w3.org/2000/svg">
<mask id="path-1-inside-1_1175_106547" fill="white">
<path d="M8.75 0C6.78033 0.00140424 4.88075 0.731081 3.41667 2.04867V0.666667C3.41667 0.489856 3.34643 0.320286 3.2214 0.195262C3.09638 0.0702379 2.92681 0 2.75 0C2.57319 0 2.40362 0.0702379 2.2786 0.195262C2.15357 0.320286 2.08333 0.489856 2.08333 0.666667V2.66667C2.08333 3.1971 2.29405 3.70581 2.66912 4.08088C3.04419 4.45595 3.5529 4.66667 4.08333 4.66667H6.08333C6.26014 4.66667 6.42971 4.59643 6.55474 4.4714C6.67976 4.34638 6.75 4.17681 6.75 4C6.75 3.82319 6.67976 3.65362 6.55474 3.52859C6.42971 3.40357 6.26014 3.33333 6.08333 3.33333H4.08333C4.06085 3.33 4.03859 3.32533 4.01667 3.31933C5.10301 2.22522 6.53542 1.54205 8.06938 1.38644C9.60333 1.23084 11.1437 1.61244 12.4277 2.46611C13.7116 3.31978 14.6595 4.5926 15.1095 6.0673C15.5594 7.542 15.4837 9.12717 14.895 10.5522C14.3064 11.9773 13.2415 13.1539 11.882 13.8812C10.5225 14.6085 8.95266 14.8414 7.44054 14.5401C5.92842 14.2389 4.56772 13.4222 3.5907 12.2295C2.61368 11.0367 2.08091 9.54183 2.08333 8C2.08333 7.82319 2.0131 7.65362 1.88807 7.52859C1.76305 7.40357 1.59348 7.33333 1.41667 7.33333C1.23986 7.33333 1.07029 7.40357 0.945262 7.52859C0.820238 7.65362 0.75 7.82319 0.75 8C0.75 9.58225 1.21919 11.129 2.09824 12.4446C2.97729 13.7602 4.22672 14.7855 5.68853 15.391C7.15034 15.9965 8.75887 16.155 10.3107 15.8463C11.8626 15.5376 13.288 14.7757 14.4069 13.6569C15.5257 12.538 16.2876 11.1126 16.5963 9.56072C16.905 8.00887 16.7465 6.40034 16.141 4.93853C15.5355 3.47672 14.5102 2.22729 13.1946 1.34824C11.879 0.469192 10.3322 0 8.75 0Z"/>
</mask>
<path d="M8.75 0C6.78033 0.00140424 4.88075 0.731081 3.41667 2.04867V0.666667C3.41667 0.489856 3.34643 0.320286 3.2214 0.195262C3.09638 0.0702379 2.92681 0 2.75 0C2.57319 0 2.40362 0.0702379 2.2786 0.195262C2.15357 0.320286 2.08333 0.489856 2.08333 0.666667V2.66667C2.08333 3.1971 2.29405 3.70581 2.66912 4.08088C3.04419 4.45595 3.5529 4.66667 4.08333 4.66667H6.08333C6.26014 4.66667 6.42971 4.59643 6.55474 4.4714C6.67976 4.34638 6.75 4.17681 6.75 4C6.75 3.82319 6.67976 3.65362 6.55474 3.52859C6.42971 3.40357 6.26014 3.33333 6.08333 3.33333H4.08333C4.06085 3.33 4.03859 3.32533 4.01667 3.31933C5.10301 2.22522 6.53542 1.54205 8.06938 1.38644C9.60333 1.23084 11.1437 1.61244 12.4277 2.46611C13.7116 3.31978 14.6595 4.5926 15.1095 6.0673C15.5594 7.542 15.4837 9.12717 14.895 10.5522C14.3064 11.9773 13.2415 13.1539 11.882 13.8812C10.5225 14.6085 8.95266 14.8414 7.44054 14.5401C5.92842 14.2389 4.56772 13.4222 3.5907 12.2295C2.61368 11.0367 2.08091 9.54183 2.08333 8C2.08333 7.82319 2.0131 7.65362 1.88807 7.52859C1.76305 7.40357 1.59348 7.33333 1.41667 7.33333C1.23986 7.33333 1.07029 7.40357 0.945262 7.52859C0.820238 7.65362 0.75 7.82319 0.75 8C0.75 9.58225 1.21919 11.129 2.09824 12.4446C2.97729 13.7602 4.22672 14.7855 5.68853 15.391C7.15034 15.9965 8.75887 16.155 10.3107 15.8463C11.8626 15.5376 13.288 14.7757 14.4069 13.6569C15.5257 12.538 16.2876 11.1126 16.5963 9.56072C16.905 8.00887 16.7465 6.40034 16.141 4.93853C15.5355 3.47672 14.5102 2.22729 13.1946 1.34824C11.879 0.469192 10.3322 0 8.75 0Z" fill="#00C56B"/>
<path d="M8.75 0L8.75 -21.3333H8.74239L8.73479 -21.3333L8.75 0ZM3.41667 2.04867H-17.9167V49.9475L17.6874 17.9061L3.41667 2.04867ZM3.41667 0.666667H24.75H3.41667ZM2.75 0L2.75 -21.3333L2.75 0ZM2.08333 0.666667H-19.25H2.08333ZM2.08333 2.66667H-19.25H2.08333ZM4.08333 4.66667V26V4.66667ZM4.08333 3.33333L0.955842 24.4362L2.51109 24.6667H4.08333V3.33333ZM4.01667 3.31933L-11.1219 -11.7118L-36.8995 14.2501L-1.60887 23.8976L4.01667 3.31933ZM2.08333 8L23.4166 8.03348L23.4167 8.01674V8L2.08333 8ZM0.75 8H-20.5833H0.75ZM8.73479 -21.3333C1.5004 -21.3282 -5.47658 -18.6481 -10.854 -13.8088L17.6874 17.9061C15.2381 20.1103 12.0603 21.331 8.76521 21.3333L8.73479 -21.3333ZM24.75 2.04867V0.666667H-17.9167V2.04867H24.75ZM24.75 0.666667C24.75 -5.16809 22.4322 -10.7639 18.3063 -14.8897L-11.8635 15.2802C-15.7393 11.4045 -17.9167 6.14781 -17.9167 0.666667H24.75ZM18.3063 -14.8897C14.1805 -19.0155 8.58476 -21.3333 2.75 -21.3333L2.75 21.3333C-2.73114 21.3333 -7.98779 19.156 -11.8635 15.2802L18.3063 -14.8897ZM2.75 -21.3333C-3.08476 -21.3333 -8.68055 -19.0155 -12.8063 -14.8897L17.3635 15.2802C13.4878 19.156 8.23114 21.3333 2.75 21.3333L2.75 -21.3333ZM-12.8063 -14.8897C-16.9322 -10.7639 -19.25 -5.16809 -19.25 0.666667H23.4167C23.4167 6.14781 21.2393 11.4045 17.3635 15.2802L-12.8063 -14.8897ZM-19.25 0.666667V2.66667H23.4167V0.666667H-19.25ZM-19.25 2.66667C-19.25 8.85505 -16.7917 14.79 -12.4158 19.1658L17.7541 -11.0041C21.3798 -7.37836 23.4167 -2.46086 23.4167 2.66667H-19.25ZM-12.4158 19.1658C-8.03998 23.5417 -2.10505 26 4.08333 26V-16.6667C9.21085 -16.6667 14.1284 -14.6298 17.7541 -11.0041L-12.4158 19.1658ZM4.08333 26H6.08333V-16.6667H4.08333V26ZM6.08333 26C11.9181 26 17.5139 23.6821 21.6397 19.5563L-8.53021 -10.6135C-4.65447 -14.4893 0.602177 -16.6667 6.08333 -16.6667V26ZM21.6397 19.5563C25.7655 15.4306 28.0833 9.83478 28.0833 4H-14.5833C-14.5833 -1.48116 -12.4059 -6.7378 -8.53021 -10.6135L21.6397 19.5563ZM28.0833 4C28.0833 -1.83478 25.7655 -7.43056 21.6397 -11.5563L-8.53021 18.6135C-12.4059 14.7378 -14.5833 9.48116 -14.5833 4H28.0833ZM21.6397 -11.5563C17.5139 -15.6821 11.9181 -18 6.08333 -18V24.6667C0.602177 24.6667 -4.65447 22.4893 -8.53021 18.6135L21.6397 -11.5563ZM6.08333 -18H4.08333V24.6667H6.08333V-18ZM7.21082 -17.7695C8.03072 -17.648 8.84263 -17.4775 9.64221 -17.2589L-1.60887 23.8976C-0.765456 24.1282 0.0909823 24.308 0.955842 24.4362L7.21082 -17.7695ZM19.1553 18.3504C16.7608 20.7621 13.6035 22.2679 10.2224 22.6109L5.91634 -19.838C-0.532673 -19.1838 -6.55474 -16.3116 -11.1219 -11.7118L19.1553 18.3504ZM10.2224 22.6109C6.84132 22.9538 3.44598 22.1127 0.61598 20.2311L24.2394 -15.2989C18.8415 -18.8879 12.3653 -20.4922 5.91634 -19.838L10.2224 22.6109ZM0.61598 20.2311C-2.21402 18.3495 -4.30325 15.544 -5.2951 12.2935L35.514 -0.158871C33.6222 -6.35877 29.6373 -11.7099 24.2394 -15.2989L0.61598 20.2311ZM-5.2951 12.2935C-6.28694 9.04297 -6.11991 5.549 -4.82251 2.40795L34.6126 18.6965C37.0872 12.7053 37.4058 6.04103 35.514 -0.158871L-5.2951 12.2935ZM-4.82251 2.40795C-3.52511 -0.7331 -1.17777 -3.32651 1.81882 -4.92959L21.9451 32.6919C27.6607 29.6342 32.138 24.6877 34.6126 18.6965L-4.82251 2.40795ZM1.81882 -4.92959C4.81542 -6.53267 8.27551 -7.04604 11.6085 -6.38208L3.27262 35.4624C9.62981 36.7288 16.2295 35.7496 21.9451 32.6919L1.81882 -4.92959ZM11.6085 -6.38208C14.9414 -5.71813 17.9406 -3.91799 20.0941 -1.28896L-12.9127 25.7479C-8.80518 30.7624 -3.08457 34.196 3.27262 35.4624L11.6085 -6.38208ZM20.0941 -1.28896C22.2477 1.34008 23.422 4.63504 23.4166 8.03348L-19.25 7.96652C-19.2601 14.4486 -17.0203 20.7333 -12.9127 25.7479L20.0941 -1.28896ZM23.4167 8C23.4167 2.16523 21.0988 -3.43055 16.973 -7.55635L-13.1969 22.6135C-17.0726 18.7378 -19.25 13.4811 -19.25 8L23.4167 8ZM16.973 -7.55635C12.8472 -11.6821 7.25144 -14 1.41667 -14V28.6667C-4.06448 28.6667 -9.32113 26.4893 -13.1969 22.6135L16.973 -7.55635ZM1.41667 -14C-4.41811 -14 -10.0139 -11.6821 -14.1397 -7.55635L16.0302 22.6135C12.1545 26.4893 6.89782 28.6667 1.41667 28.6667V-14ZM-14.1397 -7.55635C-18.2655 -3.43055 -20.5833 2.16523 -20.5833 8L22.0833 8C22.0833 13.4811 19.906 18.7378 16.0302 22.6135L-14.1397 -7.55635ZM-20.5833 8C-20.5833 13.8016 -18.863 19.4729 -15.6398 24.2967L19.8363 0.592395C21.3013 2.78505 22.0833 5.36292 22.0833 8L-20.5833 8ZM-15.6398 24.2967C-12.4166 29.1206 -7.83534 32.8803 -2.47538 35.1005L13.8524 -4.3184C16.2888 -3.30923 18.3712 -1.60027 19.8363 0.592395L-15.6398 24.2967ZM-2.47538 35.1005C2.88458 37.3206 8.78254 37.9015 14.4726 36.7697L6.14879 -5.07714C8.73521 -5.59161 11.4161 -5.32757 13.8524 -4.3184L-2.47538 35.1005ZM14.4726 36.7697C20.1628 35.6379 25.3895 32.8441 29.4918 28.7418L-0.678093 -1.42809C1.18661 -3.2928 3.56238 -4.56267 6.14879 -5.07714L14.4726 36.7697ZM29.4918 28.7418C33.5941 24.6395 36.3879 19.4128 37.5197 13.7226L-4.32714 5.39879C-3.81267 2.81238 -2.5428 0.436609 -0.678093 -1.42809L29.4918 28.7418ZM37.5197 13.7226C38.6515 8.03254 38.0706 2.13458 35.8505 -3.22538L-3.5684 13.1024C-4.57757 10.6661 -4.84161 7.98521 -4.32714 5.39879L37.5197 13.7226ZM35.8505 -3.22538C33.6303 -8.58534 29.8706 -13.1666 25.0467 -16.3898L1.3424 19.0863C-0.850267 17.6212 -2.55923 15.5388 -3.5684 13.1024L35.8505 -3.22538ZM25.0467 -16.3898C20.2229 -19.613 14.5516 -21.3333 8.75 -21.3333L8.75 21.3333C6.11292 21.3333 3.53505 20.5513 1.3424 19.0863L25.0467 -16.3898Z" fill="#00C56B" mask="url(#path-1-inside-1_1175_106547)"/>
<mask id="path-3-inside-2_1175_106547" fill="white">
<path d="M8.74479 4C8.56798 4 8.39841 4.07024 8.27339 4.19526C8.14836 4.32029 8.07812 4.48986 8.07812 4.66667V8C8.07816 8.1768 8.14843 8.34634 8.27346 8.47133L10.2735 10.4713C10.3992 10.5928 10.5676 10.66 10.7424 10.6584C10.9172 10.6569 11.0844 10.5868 11.208 10.4632C11.3316 10.3396 11.4017 10.1724 11.4032 9.9976C11.4048 9.8228 11.3376 9.6544 11.2161 9.52867L9.41146 7.724V4.66667C9.41146 4.48986 9.34122 4.32029 9.2162 4.19526C9.09117 4.07024 8.9216 4 8.74479 4Z"/>
</mask>
<path d="M8.74479 4C8.56798 4 8.39841 4.07024 8.27339 4.19526C8.14836 4.32029 8.07812 4.48986 8.07812 4.66667V8C8.07816 8.1768 8.14843 8.34634 8.27346 8.47133L10.2735 10.4713C10.3992 10.5928 10.5676 10.66 10.7424 10.6584C10.9172 10.6569 11.0844 10.5868 11.208 10.4632C11.3316 10.3396 11.4017 10.1724 11.4032 9.9976C11.4048 9.8228 11.3376 9.6544 11.2161 9.52867L9.41146 7.724V4.66667C9.41146 4.48986 9.34122 4.32029 9.2162 4.19526C9.09117 4.07024 8.9216 4 8.74479 4Z" fill="#00C56B"/>
<path d="M8.07812 8L-13.2552 8V8.00455L8.07812 8ZM8.27346 8.47133L23.3584 -6.61361L23.3561 -6.61589L8.27346 8.47133ZM10.2735 10.4713L-4.81149 25.5563L-4.6804 25.6874L-4.54706 25.8161L10.2735 10.4713ZM11.2161 9.52867L26.5609 -5.29185L26.4322 -5.4252L26.3011 -5.55628L11.2161 9.52867ZM9.41146 7.724H-11.9219V16.5606L-5.67349 22.8089L9.41146 7.724ZM8.74479 -17.3333C2.91001 -17.3333 -2.68577 -15.0155 -6.81156 -10.8897L23.3583 19.2802C19.4826 23.1559 14.2259 25.3333 8.74479 25.3333V-17.3333ZM-6.81156 -10.8897C-10.9373 -6.76389 -13.2552 -1.16811 -13.2552 4.66667H29.4115C29.4115 10.1478 27.2341 15.4045 23.3583 19.2802L-6.81156 -10.8897ZM-13.2552 4.66667V8H29.4115V4.66667H-13.2552ZM-13.2552 8.00455C-13.254 13.8389 -10.9353 19.4337 -6.80921 23.5586L23.3561 -6.61589C27.2321 -2.74105 29.4103 2.51473 29.4115 7.99544L-13.2552 8.00455ZM-6.81149 23.5563L-4.81149 25.5563L25.3584 -4.61361L23.3584 -6.61361L-6.81149 23.5563ZM-4.54706 25.8161C-0.39782 29.8236 5.15943 32.0411 10.9278 31.991L10.557 -10.6741C15.9758 -10.7212 21.1962 -8.63808 25.094 -4.87348L-4.54706 25.8161ZM10.9278 31.991C16.6961 31.9409 22.214 29.6271 26.2929 25.5482L-3.87694 -4.62173C-0.0451612 -8.45352 5.1383 -10.627 10.557 -10.6741L10.9278 31.991ZM26.2929 25.5482C30.3719 21.4692 32.6856 15.9513 32.7358 10.183L-9.92929 9.81222C-9.8822 4.39351 -7.70872 -0.789955 -3.87694 -4.62173L26.2929 25.5482ZM32.7358 10.183C32.7859 4.41463 30.5684 -1.14261 26.5609 -5.29185L-4.12869 24.3492C-7.89329 20.4514 -9.97638 15.231 -9.92929 9.81222L32.7358 10.183ZM26.3011 -5.55628L24.4964 -7.36095L-5.67349 22.8089L-3.86882 24.6136L26.3011 -5.55628ZM30.7448 7.724V4.66667H-11.9219V7.724H30.7448ZM30.7448 4.66667C30.7448 -1.16811 28.4269 -6.76389 24.3011 -10.8897L-5.86875 19.2802C-9.74449 15.4045 -11.9219 10.1478 -11.9219 4.66667H30.7448ZM24.3011 -10.8897C20.1754 -15.0155 14.5796 -17.3333 8.74479 -17.3333V25.3333C3.26364 25.3333 -1.99301 23.1559 -5.86875 19.2802L24.3011 -10.8897Z" fill="#00C56B" mask="url(#path-3-inside-2_1175_106547)"/>
</svg>
