<svg width="43" height="42" viewBox="0 0 43 42" fill="none" xmlns="http://www.w3.org/2000/svg">
<path d="M21.375 38.6H21.3751C26.0413 38.5947 30.5148 36.7387 33.8143 33.4393C37.1137 30.1398 38.9697 25.6663 38.975 21.0001V21C38.975 17.5191 37.9428 14.1163 36.0089 11.222C34.075 8.32766 31.3262 6.07182 28.1102 4.73972C24.8943 3.40762 21.3555 3.05908 17.9414 3.73818C14.5274 4.41728 11.3913 6.09352 8.92993 8.55492C6.46853 11.0163 4.79229 14.1523 4.11319 17.5664C3.43409 20.9805 3.78263 24.5193 5.11473 27.7352C6.44683 30.9512 8.70267 33.7 11.597 35.6339C14.4913 37.5678 17.8941 38.6 21.375 38.6ZM9.76359 3.62229C13.2006 1.32577 17.2413 0.100011 21.375 0.1C26.9161 0.106191 32.2285 2.31014 36.1467 6.22832C40.0649 10.1465 42.2688 15.459 42.275 21.0001C42.275 25.1337 41.0492 29.1745 38.7527 32.6114C36.4562 36.0484 33.1921 38.7272 29.3731 40.3091C25.5541 41.891 21.3518 42.3048 17.2976 41.4984C13.2434 40.692 9.51939 38.7015 6.59648 35.7785C3.67356 32.8556 1.68303 29.1316 0.876597 25.0774C0.070166 21.0232 0.484056 16.8209 2.06593 13.0019C3.6478 9.18294 6.3266 5.91881 9.76359 3.62229Z" fill="#FF7A7A" stroke="#FF7A7A" stroke-width="0.2"/>
<path d="M27.7896 14.5835L27.7896 14.5836C27.9429 14.7367 28.0645 14.9185 28.1475 15.1187C28.2304 15.3189 28.2731 15.5334 28.2731 15.7501C28.2731 15.9667 28.2304 16.1813 28.1475 16.3814C28.0645 16.5816 27.9429 16.7634 27.7896 16.9166L27.7896 16.9166L23.777 20.9294L23.7063 21.0001L23.777 21.0708L27.789 25.0829C28.0892 25.394 28.2553 25.8106 28.2515 26.2429C28.2477 26.6755 28.0742 27.0894 27.7683 27.3953C27.4624 27.7012 27.0485 27.8747 26.6159 27.8785C26.1836 27.8823 25.767 27.7162 25.4559 27.416L21.4438 23.404L21.3731 23.3333L21.3024 23.404L17.2896 27.4166L17.2896 27.4166L17.2884 27.4178C17.1362 27.5754 16.9541 27.7011 16.7528 27.7876C16.5515 27.8741 16.335 27.9196 16.1159 27.9215C15.8968 27.9234 15.6795 27.8817 15.4768 27.7987C15.274 27.7157 15.0898 27.5932 14.9348 27.4383C14.7799 27.2834 14.6574 27.0991 14.5744 26.8964C14.4915 26.6936 14.4497 26.4763 14.4516 26.2572C14.4535 26.0381 14.499 25.8216 14.5855 25.6203C14.672 25.419 14.7977 25.2369 14.9553 25.0847L14.9553 25.0848L14.9565 25.0835L18.9691 21.0708L19.0398 21.0001L18.9691 20.9294L14.9571 16.9172C14.657 16.6061 14.4909 16.1896 14.4946 15.7572C14.4984 15.3246 14.6719 14.9108 14.9778 14.6048C15.2838 14.2989 15.6976 14.1254 16.1302 14.1216C16.5626 14.1179 16.9791 14.284 17.2902 14.5841L21.3024 18.5961L21.3731 18.6668L21.4438 18.5961L25.4565 14.5835L25.4566 14.5835C25.6097 14.4302 25.7915 14.3086 25.9917 14.2257C26.1919 14.1427 26.4064 14.1 26.6231 14.1C26.8397 14.1 27.0543 14.1427 27.2544 14.2257C27.4546 14.3086 27.6364 14.4302 27.7896 14.5835Z" fill="#FF7A7A" stroke="#FF7A7A" stroke-width="0.2"/>
</svg>
