<svg width="7" height="12" viewBox="0 0 7 12" fill="none" xmlns="http://www.w3.org/2000/svg">
<path d="M1.24905 0.384042L1.24903 0.384023C0.982725 0.126621 0.558329 0.133962 0.301224 0.400345L0.30119 0.400381C0.0440384 0.666554 0.051359 1.09096 0.317525 1.34809L0.248047 1.42001L0.317527 1.34809L4.57421 5.46037L4.64613 5.52985L4.57664 5.60177L0.464372 9.85817C0.464367 9.85817 0.464362 9.85818 0.464357 9.85819C0.207197 10.1245 0.214539 10.5489 0.480697 10.806L0.480712 10.806C0.746874 11.0632 1.17128 11.056 1.42855 10.7897L1.50047 10.8591L1.42855 10.7896L6.07613 5.97909C6.07614 5.97909 6.07614 5.97908 6.07615 5.97907C6.20474 5.8459 6.2671 5.67359 6.26414 5.50198C6.26118 5.33029 6.19278 5.16009 6.05969 5.03149C6.05969 5.03149 6.05969 5.03149 6.05969 5.03148L1.24905 0.384042Z" fill="#616161" stroke="#EFEEFF" stroke-width="0.2"/>
</svg>
