<svg width="18" height="16" viewBox="0 0 18 16" fill="none" xmlns="http://www.w3.org/2000/svg">
<g clip-path="url(#clip0_1175_106273)">
<path d="M16.9468 14.5735L13.1388 10.6129C14.1179 9.44901 14.6544 7.98455 14.6544 6.45999C14.6544 2.89801 11.7564 0 8.19437 0C4.63238 0 1.73438 2.89801 1.73438 6.45999C1.73438 10.022 4.63238 12.92 8.19437 12.92C9.53159 12.92 10.8059 12.5167 11.8954 11.751L15.7323 15.7416C15.8927 15.9082 16.1084 16 16.3396 16C16.5584 16 16.7659 15.9166 16.9235 15.7649C17.2583 15.4428 17.269 14.9085 16.9468 14.5735ZM8.19437 1.68522C10.8272 1.68522 12.9691 3.82713 12.9691 6.45999C12.9691 9.09286 10.8272 11.2348 8.19437 11.2348C5.5615 11.2348 3.41959 9.09286 3.41959 6.45999C3.41959 3.82713 5.5615 1.68522 8.19437 1.68522Z" fill="#A1A1A1"/>
</g>
<defs>
<clipPath id="clip0_1175_106273">
<rect width="16.3396" height="16" fill="white" transform="translate(0.882812)"/>
</clipPath>
</defs>
</svg>
