<svg width="121" height="24" viewBox="0 0 121 24" fill="none" xmlns="http://www.w3.org/2000/svg">
<path d="M39.5518 19.3076C38.5674 19.3076 37.7119 19.1582 36.9854 18.8594C36.2646 18.5547 35.6963 18.1299 35.2803 17.585C34.8643 17.04 34.627 16.4043 34.5684 15.6777L34.5596 15.5547H36.7656L36.7744 15.6426C36.8154 16 36.959 16.3105 37.2051 16.5742C37.4512 16.8379 37.7822 17.043 38.1982 17.1895C38.6143 17.3359 39.0889 17.4092 39.6221 17.4092C40.1318 17.4092 40.583 17.333 40.9756 17.1807C41.3682 17.0225 41.6758 16.8057 41.8984 16.5303C42.1211 16.249 42.2324 15.9268 42.2324 15.5635V15.5547C42.2324 15.0977 42.0537 14.7256 41.6963 14.4385C41.3389 14.1455 40.75 13.9111 39.9297 13.7354L38.5674 13.4541C37.2725 13.1787 36.3291 12.7393 35.7373 12.1357C35.1455 11.5264 34.8496 10.75 34.8496 9.80664V9.79785C34.8496 9.04199 35.0488 8.37988 35.4473 7.81152C35.8516 7.24316 36.4053 6.80078 37.1084 6.48438C37.8174 6.16797 38.6289 6.00977 39.543 6.00977C40.4805 6.00977 41.292 6.16504 41.9775 6.47559C42.6631 6.78613 43.2021 7.21094 43.5947 7.75C43.9873 8.28906 44.207 8.90137 44.2539 9.58691L44.2627 9.70117H42.1006L42.083 9.5957C42.0303 9.26172 41.8926 8.96875 41.6699 8.7168C41.4531 8.46484 41.1631 8.26562 40.7998 8.11914C40.4365 7.97266 40.0117 7.90234 39.5254 7.9082C39.0566 7.9082 38.6406 7.97852 38.2773 8.11914C37.9199 8.25977 37.6357 8.46191 37.4248 8.72559C37.2197 8.9834 37.1172 9.29395 37.1172 9.65723V9.66602C37.1172 10.1113 37.29 10.4805 37.6357 10.7734C37.9873 11.0605 38.5586 11.2861 39.3496 11.4502L40.7119 11.7402C42.0479 12.0215 43.0117 12.4463 43.6035 13.0146C44.2012 13.5771 44.5 14.3389 44.5 15.2998V15.3086C44.5 16.1289 44.2979 16.8379 43.8936 17.4355C43.4951 18.0332 42.9238 18.4961 42.1797 18.8242C41.4414 19.1465 40.5654 19.3076 39.5518 19.3076ZM49.9668 19.1934C49.252 19.1934 48.6514 19.0557 48.165 18.7803C47.6787 18.499 47.3125 18.0918 47.0664 17.5586C46.8203 17.0195 46.6973 16.3721 46.6973 15.6162V9.41113H48.8857V15.1152C48.8857 15.8535 49.0322 16.4102 49.3252 16.7852C49.6182 17.1602 50.0957 17.3477 50.7578 17.3477C51.2266 17.3477 51.6221 17.251 51.9443 17.0576C52.2666 16.8643 52.5098 16.5918 52.6738 16.2402C52.8379 15.8887 52.9199 15.4756 52.9199 15.001V9.41113H55.1084V19H52.9199V17.541H52.7793C52.5508 18.0566 52.1992 18.4609 51.7246 18.7539C51.25 19.0469 50.6641 19.1934 49.9668 19.1934ZM57.7539 22.1904V9.41113H59.9336V10.9229H60.083C60.2588 10.5713 60.4873 10.2725 60.7686 10.0264C61.0557 9.77441 61.3867 9.58398 61.7617 9.45508C62.1367 9.32031 62.5498 9.25293 63.001 9.25293C63.8037 9.25293 64.498 9.45508 65.084 9.85938C65.6758 10.2637 66.1328 10.835 66.4551 11.5732C66.7773 12.3115 66.9385 13.1846 66.9385 14.1924V14.21C66.9385 15.2295 66.7773 16.1113 66.4551 16.8555C66.1387 17.5938 65.6846 18.1621 65.0928 18.5605C64.5068 18.959 63.8096 19.1582 63.001 19.1582C62.5615 19.1582 62.1514 19.0908 61.7705 18.9561C61.3896 18.8154 61.0557 18.6191 60.7686 18.3672C60.4814 18.1152 60.2529 17.8164 60.083 17.4707H59.9336V22.1904H57.7539ZM62.3154 17.3125C62.8135 17.3125 63.2412 17.1895 63.5986 16.9434C63.9561 16.6914 64.2314 16.334 64.4248 15.8711C64.6182 15.4082 64.7148 14.8545 64.7148 14.21V14.1924C64.7148 13.5479 64.6182 12.9941 64.4248 12.5312C64.2314 12.0684 63.9561 11.7139 63.5986 11.4678C63.2412 11.2158 62.8135 11.0898 62.3154 11.0898C61.8232 11.0898 61.3955 11.2158 61.0322 11.4678C60.6748 11.7197 60.3965 12.0771 60.1973 12.54C60.0039 12.9971 59.9072 13.5479 59.9072 14.1924V14.21C59.9072 14.8486 60.0039 15.4023 60.1973 15.8711C60.3965 16.334 60.6748 16.6914 61.0322 16.9434C61.3955 17.1895 61.8232 17.3125 62.3154 17.3125ZM73.2139 19.1934C72.2646 19.1934 71.4473 18.9912 70.7617 18.5869C70.082 18.1826 69.5576 17.6113 69.1885 16.873C68.8193 16.1289 68.6348 15.2471 68.6348 14.2275V14.2188C68.6348 13.2109 68.8164 12.335 69.1797 11.5908C69.5488 10.8408 70.0703 10.2578 70.7441 9.8418C71.418 9.42578 72.209 9.21777 73.1172 9.21777C74.0254 9.21777 74.8076 9.41992 75.4639 9.82422C76.126 10.2227 76.6357 10.7822 76.9932 11.5029C77.3506 12.2236 77.5293 13.0674 77.5293 14.0342V14.7549H69.7334V13.2871H76.457L75.4199 14.6582V13.7881C75.4199 13.1494 75.3232 12.6191 75.1299 12.1973C74.9365 11.7754 74.667 11.459 74.3213 11.248C73.9814 11.0371 73.5889 10.9316 73.1436 10.9316C72.6924 10.9316 72.291 11.043 71.9395 11.2656C71.5938 11.4824 71.3184 11.8047 71.1133 12.2324C70.9141 12.6543 70.8145 13.1729 70.8145 13.7881V14.667C70.8145 15.2529 70.9141 15.7568 71.1133 16.1787C71.3125 16.6006 71.5938 16.9229 71.957 17.1455C72.3262 17.3682 72.7627 17.4795 73.2666 17.4795C73.6592 17.4795 73.9961 17.4238 74.2773 17.3125C74.5586 17.1953 74.7871 17.0576 74.9629 16.8994C75.1445 16.7354 75.2676 16.5771 75.332 16.4248L75.3584 16.3633H77.4326L77.415 16.4512C77.3389 16.7617 77.1982 17.0781 76.9932 17.4004C76.7939 17.7168 76.5215 18.0127 76.1758 18.2881C75.8359 18.5576 75.4199 18.7773 74.9277 18.9473C74.4355 19.1113 73.8643 19.1934 73.2139 19.1934ZM79.6914 19V9.41113H81.8711V10.8877H82.0205C82.1846 10.3662 82.4775 9.96484 82.8994 9.68359C83.3271 9.39648 83.8545 9.25293 84.4814 9.25293C84.6455 9.25293 84.8037 9.26172 84.9561 9.2793C85.1143 9.29688 85.249 9.32031 85.3604 9.34961V11.3096C85.1846 11.2686 85.0059 11.2393 84.8242 11.2217C84.6484 11.1982 84.4668 11.1865 84.2793 11.1865C83.793 11.1865 83.3682 11.2773 83.0049 11.459C82.6475 11.6406 82.3691 11.8984 82.1699 12.2324C81.9707 12.5664 81.8711 12.9648 81.8711 13.4277V19H79.6914ZM87.3379 19V6.31738H92.084C93.3438 6.31738 94.416 6.56348 95.3008 7.05566C96.1914 7.54785 96.8711 8.2627 97.3398 9.2002C97.8145 10.1377 98.0518 11.2686 98.0518 12.5928V12.6104C98.0518 13.9639 97.8174 15.1182 97.3486 16.0732C96.8799 17.0225 96.2002 17.749 95.3096 18.2529C94.4248 18.751 93.3496 19 92.084 19H87.3379ZM89.5967 17.0928H91.7852C92.6289 17.0928 93.3438 16.9199 93.9297 16.5742C94.5215 16.2285 94.9727 15.7246 95.2832 15.0625C95.5938 14.4004 95.749 13.5947 95.749 12.6455V12.6279C95.749 11.6963 95.5908 10.9023 95.2744 10.2461C94.9639 9.58984 94.5127 9.08887 93.9209 8.74316C93.3291 8.39746 92.6172 8.22461 91.7852 8.22461H89.5967V17.0928ZM104.521 19.1934C103.565 19.1934 102.742 18.9941 102.051 18.5957C101.365 18.1914 100.835 17.6172 100.46 16.873C100.091 16.1289 99.9062 15.2412 99.9062 14.21V14.1924C99.9062 13.167 100.094 12.2822 100.469 11.5381C100.844 10.7939 101.374 10.2227 102.06 9.82422C102.751 9.41992 103.571 9.21777 104.521 9.21777C105.476 9.21777 106.296 9.41699 106.981 9.81543C107.673 10.2139 108.206 10.7852 108.581 11.5293C108.956 12.2734 109.144 13.1611 109.144 14.1924V14.21C109.144 15.2412 108.956 16.1289 108.581 16.873C108.212 17.6172 107.682 18.1914 106.99 18.5957C106.305 18.9941 105.481 19.1934 104.521 19.1934ZM104.521 17.418C105.03 17.418 105.461 17.292 105.812 17.04C106.164 16.7822 106.434 16.416 106.621 15.9414C106.809 15.4609 106.902 14.8838 106.902 14.21V14.1924C106.902 13.5186 106.809 12.9443 106.621 12.4697C106.434 11.9893 106.161 11.623 105.804 11.3711C105.452 11.1191 105.024 10.9932 104.521 10.9932C104.017 10.9932 103.589 11.1191 103.237 11.3711C102.886 11.623 102.613 11.9893 102.42 12.4697C102.232 12.9443 102.139 13.5186 102.139 14.1924V14.21C102.139 14.8896 102.232 15.4697 102.42 15.9502C102.607 16.4248 102.877 16.7881 103.229 17.04C103.586 17.292 104.017 17.418 104.521 17.418ZM115.428 19.1934C114.467 19.1934 113.644 18.9941 112.958 18.5957C112.278 18.1973 111.754 17.626 111.385 16.8818C111.021 16.1318 110.84 15.2324 110.84 14.1836V14.166C110.84 13.1348 111.021 12.25 111.385 11.5117C111.748 10.7734 112.272 10.208 112.958 9.81543C113.644 9.41699 114.467 9.21777 115.428 9.21777C116.248 9.21777 116.954 9.36133 117.546 9.64844C118.144 9.93555 118.615 10.3311 118.961 10.835C119.312 11.3389 119.529 11.9189 119.611 12.5752V12.6191H117.546L117.537 12.5928C117.438 12.124 117.209 11.7402 116.852 11.4414C116.5 11.1426 116.028 10.9932 115.437 10.9932C114.938 10.9932 114.511 11.1191 114.153 11.3711C113.802 11.6172 113.532 11.9775 113.345 12.4521C113.157 12.9268 113.063 13.501 113.063 14.1748V14.1924C113.063 14.8662 113.157 15.4463 113.345 15.9326C113.538 16.4131 113.811 16.7822 114.162 17.04C114.514 17.292 114.938 17.418 115.437 17.418C116.005 17.418 116.462 17.2891 116.808 17.0312C117.153 16.7734 117.394 16.3926 117.528 15.8887L117.546 15.8535L119.603 15.8447L119.594 15.915C119.494 16.5654 119.269 17.1367 118.917 17.6289C118.571 18.1211 118.105 18.5049 117.52 18.7803C116.939 19.0557 116.242 19.1934 115.428 19.1934Z" fill="#1A1A1A"/>
<path d="M7.80068 0C6.80648 0 6.00052 0.805957 6.00052 1.80016V3.00026C6.00052 3.99446 6.80648 4.80042 7.80068 4.80042H13.8012C14.7954 4.80042 15.6014 3.99446 15.6014 3.00026V1.80016C15.6014 0.805957 14.7954 0 13.8012 0H7.80068Z" fill="#5B5FC7"/>
<path fill-rule="evenodd" clip-rule="evenodd" d="M4.20037 2.44415C2.69075 2.52885 1.73773 2.76941 1.05451 3.45263C0 4.50714 0 6.20434 0 9.59875V16.7994C0 20.1938 0 21.891 1.05451 22.9455C2.10901 24 3.80622 24 7.20062 24H14.4013C17.7957 24 19.4929 24 20.5474 22.9455C21.6019 21.891 21.6019 20.1938 21.6019 16.7994V9.59875C21.6019 6.20434 21.6019 4.50714 20.5474 3.45263C19.8641 2.76941 18.9111 2.52885 17.4015 2.44415V3.00026C17.4015 4.98866 15.7896 6.60057 13.8012 6.60057H7.80068C5.81228 6.60057 4.20037 4.98866 4.20037 3.00026V2.44415ZM4.80042 14.1012C4.30332 14.1012 3.90034 14.5042 3.90034 15.0013C3.90034 15.4984 4.30332 15.9014 4.80042 15.9014H14.4013C14.8983 15.9014 15.3013 15.4984 15.3013 15.0013C15.3013 14.5042 14.8983 14.1012 14.4013 14.1012H4.80042ZM4.80042 18.3016C4.30332 18.3016 3.90034 18.7046 3.90034 19.2017C3.90034 19.6988 4.30332 20.1017 4.80042 20.1017H11.401C11.8981 20.1017 12.3011 19.6988 12.3011 19.2017C12.3011 18.7046 11.8981 18.3016 11.401 18.3016H4.80042Z" fill="#5B5FC7"/>
</svg>
