<svg width="12" height="12" viewBox="0 0 12 12" fill="none" xmlns="http://www.w3.org/2000/svg">
<path d="M4.53056 7.76667C4.3589 7.76667 4.19428 7.69848 4.0729 7.5771C3.95152 7.45572 3.88333 7.2911 3.88333 7.11944V4.53056C3.88333 4.3589 3.95152 4.19428 4.0729 4.0729C4.19428 3.95152 4.3589 3.88333 4.53056 3.88333H7.11944C7.2911 3.88333 7.45572 3.95152 7.5771 4.0729C7.69848 4.19428 7.76667 4.3589 7.76667 4.53056V7.11944C7.76667 7.2911 7.69848 7.45572 7.5771 7.5771C7.45572 7.69848 7.2911 7.76667 7.11944 7.76667H4.53056ZM11.65 5.17778C11.65 4.83447 11.5136 4.50522 11.2709 4.26247C11.0281 4.01971 10.6989 3.88333 10.3556 3.88333H8.94183C9.01858 4.09059 9.05894 4.30955 9.06111 4.53056V7.11944C9.06055 7.63423 8.8558 8.12778 8.49179 8.49179C8.12778 8.8558 7.63423 9.06055 7.11944 9.06111H4.53056C4.30956 9.0589 4.0906 9.01855 3.88333 8.94183V10.3556C3.88333 10.6989 4.01971 11.0281 4.26247 11.2709C4.50522 11.5136 4.83447 11.65 5.17778 11.65H10.3556C10.6989 11.65 11.0281 11.5136 11.2709 11.2709C11.5136 11.0281 11.65 10.6989 11.65 10.3556V5.17778ZM1.29444 0C0.951136 0 0.621889 0.136379 0.379134 0.379134C0.136379 0.621889 0 0.951136 0 1.29444V6.47222C0 6.81553 0.136379 7.14478 0.379134 7.38753C0.621889 7.63029 0.951136 7.76667 1.29444 7.76667H2.70817C2.63145 7.5594 2.5911 7.34044 2.58889 7.11944V4.53056C2.58945 4.01577 2.7942 3.52222 3.15821 3.15821C3.52222 2.7942 4.01577 2.58945 4.53056 2.58889H7.11944C7.34045 2.59106 7.55941 2.63142 7.76667 2.70817V1.29444C7.76667 0.951136 7.63029 0.621889 7.38753 0.379134C7.14478 0.136379 6.81553 0 6.47222 0H1.29444Z" fill="#9C99B8"/>
</svg>
