<svg width="12" height="12" viewBox="0 0 12 12" fill="none" xmlns="http://www.w3.org/2000/svg">
<path d="M3.07178 5.50586C1.378 5.50586 0 6.88386 0 8.57764C0 10.2714 1.378 11.6494 3.07178 11.6494C4.76556 11.6494 6.14355 10.2714 6.14355 8.57764C6.14355 6.88386 4.76556 5.50586 3.07178 5.50586ZM4.42805 8.20461L2.83527 9.79738C2.76865 9.86403 2.6813 9.89736 2.59395 9.89736C2.50659 9.89736 2.41924 9.86403 2.35262 9.79738L1.67 9.11476C1.53671 8.9815 1.53671 8.76538 1.67 8.63209C1.80327 8.49882 2.01939 8.49882 2.15268 8.63209L2.59395 9.07338L3.94539 7.72193C4.07866 7.58866 4.29478 7.58866 4.42807 7.72193C4.56134 7.85522 4.56134 8.07134 4.42805 8.20461Z" fill="#9C99B8"/>
<path d="M8.98779 2.95801C8.7993 2.95801 8.64648 2.80519 8.64648 2.6167V0H3.75439C3.1898 0 2.73047 0.459333 2.73047 1.02393V4.83951C2.84292 4.82931 2.95671 4.82383 3.07178 4.82383C4.23514 4.82383 5.27656 5.35572 5.96576 6.18906H9.67041C9.8589 6.18906 10.0117 6.34188 10.0117 6.53037C10.0117 6.71886 9.8589 6.87168 9.67041 6.87168H6.41542C6.62876 7.28798 6.76633 7.74918 6.81049 8.23691H9.67041C9.8589 8.23691 10.0117 8.38973 10.0117 8.57822C10.0117 8.76672 9.8589 8.91953 9.67041 8.91953H6.81049C6.70842 10.0467 6.10617 11.0317 5.22789 11.65H10.5806C11.1452 11.65 11.6045 11.1907 11.6045 10.6261V2.95801H8.98779ZM9.67041 4.82383H4.66455C4.47606 4.82383 4.32324 4.67101 4.32324 4.48252C4.32324 4.29403 4.47606 4.14121 4.66455 4.14121H9.67041C9.8589 4.14121 10.0117 4.29403 10.0117 4.48252C10.0117 4.67101 9.8589 4.82383 9.67041 4.82383Z" fill="#9C99B8"/>
<path d="M9.32812 0.199219V2.27476H11.4035L9.32812 0.199219Z" fill="#9C99B8"/>
</svg>
