<svg width="12" height="12" viewBox="0 0 12 12" fill="none" xmlns="http://www.w3.org/2000/svg">
<path d="M9.25781 3.04688C9.06366 3.04688 8.90625 2.88947 8.90625 2.69531V0H3.86719C3.28563 0 2.8125 0.473133 2.8125 1.05469V4.9849C2.92833 4.9744 3.04554 4.96875 3.16406 4.96875C4.36238 4.96875 5.43509 5.51662 6.14498 6.375H9.96094C10.1551 6.375 10.3125 6.53241 10.3125 6.72656C10.3125 6.92072 10.1551 7.07812 9.96094 7.07812H6.60816C6.82791 7.50694 6.96961 7.98199 7.0151 8.48438H9.96094C10.1551 8.48438 10.3125 8.64178 10.3125 8.83594C10.3125 9.03009 10.1551 9.1875 9.96094 9.1875H7.0151C6.90996 10.3486 6.28962 11.3631 5.38495 12H10.8984C11.48 12 11.9531 11.5269 11.9531 10.9453V3.04688H9.25781ZM9.96094 4.96875H4.80469C4.61053 4.96875 4.45312 4.81134 4.45312 4.61719C4.45312 4.42303 4.61053 4.26562 4.80469 4.26562H9.96094C10.1551 4.26562 10.3125 4.42303 10.3125 4.61719C10.3125 4.81134 10.1551 4.96875 9.96094 4.96875Z" fill="#9C99B8"/>
<path d="M9.60938 0.205078V2.34298H11.7471L9.60938 0.205078Z" fill="#9C99B8"/>
<path d="M3.16406 5.67188C1.4194 5.67188 0 7.09127 0 8.83594C0 10.5806 1.4194 12 3.16406 12C4.90873 12 6.32812 10.5806 6.32812 8.83594C6.32812 7.09127 4.90873 5.67188 3.16406 5.67188ZM4.46733 9.64205C4.60463 9.77932 4.60463 10.0019 4.46733 10.1392C4.3987 10.2079 4.30873 10.2422 4.21875 10.2422C4.12877 10.2422 4.0388 10.2079 3.97017 10.1392L3.16406 9.33312L2.35795 10.1392C2.28933 10.2079 2.19935 10.2422 2.10938 10.2422C2.0194 10.2422 1.92942 10.2079 1.8608 10.1392C1.7235 10.0019 1.7235 9.77932 1.8608 9.64202L2.66688 8.83594L1.86077 8.02983C1.72348 7.89255 1.72348 7.66995 1.86077 7.53265C1.99805 7.39538 2.22066 7.39538 2.35795 7.53265L3.16406 8.33876L3.97017 7.53265C4.10745 7.39538 4.33005 7.39538 4.46735 7.53265C4.60465 7.66992 4.60465 7.89253 4.46735 8.02983L3.66124 8.83594L4.46733 9.64205Z" fill="#9C99B8"/>
</svg>
