<svg width="13" height="13" viewBox="0 0 13 13" fill="none" xmlns="http://www.w3.org/2000/svg">
<path d="M7.71823 0H1.48948C0.666205 0 0 0.666205 0 1.48948V9.88475C0 10.708 0.666205 11.3742 1.48948 11.3742H5.05883C4.76635 10.7568 4.60386 10.0689 4.60386 9.34312C4.60386 8.72025 4.72302 8.12445 4.94509 7.57741C4.92342 7.58282 4.90175 7.58282 4.87467 7.58282H2.16652C1.86862 7.58282 1.62489 7.33909 1.62489 7.04119C1.62489 6.7433 1.86862 6.49956 2.16652 6.49956H4.87467C5.08049 6.49956 5.26465 6.61872 5.35131 6.79204C5.70337 6.245 6.15834 5.7792 6.69455 5.4163H2.16652C1.86862 5.4163 1.62489 5.17257 1.62489 4.87467C1.62489 4.57678 1.86862 4.33304 2.16652 4.33304H7.04119C7.33909 4.33304 7.58282 4.57678 7.58282 4.87467C7.58282 4.90175 7.58282 4.92342 7.57741 4.94509C8.08112 4.73927 8.63359 4.62011 9.20772 4.60927V1.48948C9.20772 0.666205 8.54151 0 7.71823 0ZM4.33304 3.24978H2.16652C1.86862 3.24978 1.62489 3.00605 1.62489 2.70815C1.62489 2.41025 1.86862 2.16652 2.16652 2.16652H4.33304C4.63094 2.16652 4.87467 2.41025 4.87467 2.70815C4.87467 3.00605 4.63094 3.24978 4.33304 3.24978Z" fill="#9C99B8"/>
<path d="M9.3435 5.6875C7.32756 5.6875 5.6875 7.32756 5.6875 9.3435C5.6875 11.3595 7.32756 12.9995 9.3435 12.9995C11.3595 12.9995 12.9995 11.3595 12.9995 9.3435C12.9995 7.32756 11.3595 5.6875 9.3435 5.6875ZM10.833 9.88514H9.88514V10.833C9.88514 11.132 9.64248 11.3746 9.3435 11.3746C9.04452 11.3746 8.80187 11.132 8.80187 10.833V9.88514H7.85402C7.55504 9.88514 7.31239 9.64248 7.31239 9.3435C7.31239 9.04452 7.55504 8.80187 7.85402 8.80187H8.80187V7.85402C8.80187 7.55504 9.04452 7.31239 9.3435 7.31239C9.64248 7.31239 9.88514 7.55504 9.88514 7.85402V8.80187H10.833C11.132 8.80187 11.3746 9.04452 11.3746 9.3435C11.3746 9.64248 11.132 9.88514 10.833 9.88514Z" fill="#9C99B8"/>
</svg>
