<svg width="16" height="16" viewBox="0 0 16 16" fill="none" xmlns="http://www.w3.org/2000/svg">
<path d="M6.49935 4.0013H12.166M6.49935 8.0013H12.166M6.49935 12.0013H12.166M4.33268 4.0013C4.33268 4.1854 4.18344 4.33464 3.99935 4.33464C3.81525 4.33464 3.66602 4.1854 3.66602 4.0013C3.66602 3.81721 3.81525 3.66797 3.99935 3.66797C4.18344 3.66797 4.33268 3.81721 4.33268 4.0013ZM4.33268 8.0013C4.33268 8.1854 4.18344 8.33464 3.99935 8.33464C3.81525 8.33464 3.66602 8.1854 3.66602 8.0013C3.66602 7.81721 3.81525 7.66797 3.99935 7.66797C4.18344 7.66797 4.33268 7.81721 4.33268 8.0013ZM4.33268 12.0013C4.33268 12.1854 4.18344 12.3346 3.99935 12.3346C3.81525 12.3346 3.66602 12.1854 3.66602 12.0013C3.66602 11.8172 3.81525 11.668 3.99935 11.668C4.18344 11.668 4.33268 11.8172 4.33268 12.0013Z" stroke="#667085" stroke-width="1.5" stroke-linecap="round" stroke-linejoin="round"/>
</svg>
