<svg width="18" height="24" viewBox="0 0 18 24" fill="none" xmlns="http://www.w3.org/2000/svg">
<path d="M17.3813 6.57187V22.4531C17.3813 23.3062 16.6875 24 15.8344 24H1.54688C0.69375 24 0 23.3062 0 22.4531V1.54688C0 0.69375 0.69375 0 1.54688 0H10.8094L17.3813 6.57187Z" fill="#518FF5"/>
<path d="M4.25 12.0312H13.1375V13.0203H4.25V12.0312Z" fill="white"/>
<path d="M4.25 14.2344H13.1375V15.2234H4.25V14.2344Z" fill="white"/>
<path d="M4.25 16.4453H13.1375V17.4344H4.25V16.4453Z" fill="white"/>
<path d="M4.25 18.6406H10.5734V19.6297H4.25V18.6406Z" fill="white"/>
<path opacity="0.19" d="M11.7031 6.32344L17.3797 10.9219V6.6L14.1641 4.73438L11.7031 6.32344Z" fill="black"/>
<path d="M17.3766 6.57188H12.3516C11.4984 6.57188 10.8047 5.87813 10.8047 5.025V0L17.3766 6.57188Z" fill="#A6C5FA"/>
</svg>
