<svg width="26" height="19" viewBox="0 0 26 19" fill="none" xmlns="http://www.w3.org/2000/svg">
<path d="M19.7267 18.37H15.6462H14.5474H14.3101V12.8967H16.1002C16.5541 12.8967 16.8224 12.3808 16.5541 12.0094L13.0721 7.19118C12.8502 6.88166 12.3911 6.88166 12.1693 7.19118L8.68719 12.0094C8.41894 12.3808 8.68203 12.8967 9.14115 12.8967H10.9312V18.37H10.6939H9.59511H4.86462C2.15632 18.2204 0 15.6875 0 12.9431C0 11.0499 1.02657 9.39909 2.54838 8.50664C2.4091 8.13005 2.33687 7.72768 2.33687 7.30467C2.33687 5.37017 3.89995 3.80709 5.83445 3.80709C6.2523 3.80709 6.65468 3.87932 7.03126 4.0186C8.15069 1.64561 10.5649 0 13.3713 0C17.003 0.00515866 19.995 2.78568 20.3355 6.32968C23.1263 6.80944 25.2465 9.39393 25.2465 12.3189C25.2465 15.445 22.8116 18.1533 19.7267 18.37Z" fill="#5B5FC7"/>
</svg>
