<svg width="18" height="18" viewBox="0 0 18 18" fill="none" xmlns="http://www.w3.org/2000/svg">
<path fill-rule="evenodd" clip-rule="evenodd" d="M11.8975 0.554959C12.1882 -0.184986 13.2335 -0.184987 13.5243 0.554959L13.9047 1.52315L14.8689 1.9048C15.6061 2.19663 15.6061 3.2419 14.8689 3.53373L13.9047 3.91538L13.5243 4.88357C13.2335 5.62351 12.1882 5.62352 11.8975 4.88357L11.517 3.91538L10.5529 3.53373C9.8157 3.2419 9.81569 2.19663 10.5529 1.9048L11.517 1.52315L11.8975 0.554959ZM12.7109 0.915458L13.0795 1.85363C13.1681 2.07903 13.3461 2.25802 13.5717 2.34731L14.5113 2.71926L13.5717 3.09122C13.3461 3.18051 13.1681 3.35949 13.0795 3.5849L12.7109 4.52307L12.3422 3.5849C12.2537 3.3595 12.0757 3.18051 11.8501 3.09122L10.9105 2.71926L11.8501 2.34731C12.0757 2.25802 12.2537 2.07903 12.3422 1.85363L12.7109 0.915458Z" fill="#5B5FC7"/>
<path fill-rule="evenodd" clip-rule="evenodd" d="M0.945953 1.61262C2.20722 0.351349 4.25215 0.351349 5.51342 1.61262L16.3874 12.4866C17.6487 13.7479 17.6487 15.7928 16.3874 17.054C15.1261 18.3153 13.0812 18.3153 11.8199 17.054L0.945953 6.18008C-0.315318 4.91881 -0.315318 2.87389 0.945953 1.61262ZM4.57061 2.55543C3.83004 1.81486 2.62933 1.81486 1.88876 2.55543C1.14819 3.296 1.14819 4.4967 1.88876 5.23727L3.29879 6.6473L5.98063 3.96545L4.57061 2.55543ZM12.7627 16.1112L4.2416 7.59011L6.92344 4.90826L15.4446 13.4294C16.1851 14.17 16.1851 15.3707 15.4446 16.1112C14.704 16.8518 13.5033 16.8518 12.7627 16.1112Z" fill="#5B5FC7"/>
<path fill-rule="evenodd" clip-rule="evenodd" d="M16.9617 6.6192C16.671 5.87925 15.6257 5.87925 15.335 6.6192L15.1976 6.96877L14.8498 7.10645C14.1126 7.39828 14.1126 8.44355 14.8498 8.73537L15.1976 8.87305L15.335 9.22263C15.6257 9.96257 16.671 9.96257 16.9617 9.22263L17.0991 8.87305L17.4469 8.73537C18.1841 8.44355 18.1841 7.39828 17.4469 7.10645L17.0991 6.96877L16.9617 6.6192ZM16.1483 6.9797L16.0228 7.29925C15.9342 7.52466 15.7562 7.70364 15.5306 7.79294L15.2073 7.92091L15.5306 8.04888C15.7562 8.13818 15.9342 8.31716 16.0228 8.54257L16.1483 8.86213L16.2739 8.54257C16.3625 8.31716 16.5405 8.13818 16.7661 8.04888L17.0894 7.92091L16.7661 7.79294C16.5405 7.70364 16.3625 7.52466 16.2739 7.29925L16.1483 6.9797Z" fill="#5B5FC7"/>
<path fill-rule="evenodd" clip-rule="evenodd" d="M2.14919 12.1105C2.43994 11.3706 3.48522 11.3706 3.77598 12.1105L3.91334 12.4601L4.26114 12.5978C4.99836 12.8896 4.99836 13.9349 4.26114 14.2267L3.91334 14.3644L3.77598 14.7139C3.48522 15.4539 2.43994 15.4539 2.14919 14.7139L2.01183 14.3644L1.66402 14.2267C0.926807 13.9349 0.926807 12.8896 1.66402 12.5978L2.01183 12.4601L2.14919 12.1105ZM2.83701 12.7906L2.96258 12.471L3.08815 12.7906C3.17672 13.016 3.35473 13.195 3.58031 13.2843L3.90359 13.4122L3.58031 13.5402C3.35473 13.6295 3.17672 13.8085 3.08815 14.0339L2.96258 14.3534L2.83701 14.0339C2.74844 13.8085 2.57044 13.6295 2.34486 13.5402L2.02157 13.4122L2.34486 13.2843C2.57044 13.195 2.74844 13.016 2.83701 12.7906Z" fill="#5B5FC7"/>
</svg>
